PathFileType	4	(X/Y/Z)	S1_rest_fast_right.trc
DataRate	CameraRate	NumFrames	NumMarkers	Units	OrigDataRate	OrigDataStartFrame	OrigNumFrames
250.00	250.00	7	18	mm	250.00	1	21613
Frame#	Time	c7	r_should	l_should	clavicle	r_upa	r_elb_l	r_elb_m	r_low	r_wri_l	r_wri_m	r_met	l_upa	l_elb_l	l_elb_m	l_low	l_wri_l	l_wri_m	l_met
	X1	Y1	Z1	X2	Y2	Z2	X3	Y3	Z3	X4	Y4	Z4	X5	Y5	Z5	X6	Y6	Z6	X7	Y7	Z7	X8	Y8	Z8	X9	Y9	Z9	X10	Y10	Z10	X11	Y11	Z11	X12	Y12	Z12	X13	Y13	Z13	X14	Y14	Z14	X15	Y15	Z15	X16	Y16	Z16	X17	Y17	Z17	X18	Y18	Z18
1	0.00000	432.84103	1420.40466	127.43980	504.09668	1340.61121	297.54868	472.80945	1372.02686	-71.86266	569.22119	1299.97009	99.40887	465.41043	1131.33069	332.58939	474.44778	1065.73730	337.21292	445.79929	1025.70496	246.43059	563.09564	985.33130	303.51675	661.14349	1023.62225	325.61551	657.78967	1013.67639	250.31593	740.60681	985.85114	333.11053	450.34286	1167.70825	-147.90373	454.01892	1089.10828	-168.91087	385.87686	1053.73279	-104.42680	447.70905	944.29401	-184.25327	537.24481	879.53180	-133.30324	484.57602	854.95270	-178.48047	580.55255	808.97095	-151.73271
2	0.00400	433.00760	1420.39685	127.47308	503.99579	1340.67578	297.59070	473.05054	1372.01819	-71.81421	569.40894	1299.98730	99.48238	465.64337	1131.34753	332.60339	474.76196	1066.15271	337.22607	446.38300	1025.80652	246.28300	564.02899	986.66211	303.51062	661.38647	1026.41101	325.55325	658.35431	1016.27698	250.18570	741.53516	989.41638	332.95078	450.64130	1167.70007	-147.84900	454.22314	1089.19250	-169.08305	386.14774	1053.71094	-104.38367	447.97192	944.27991	-184.23674	537.46436	879.46130	-133.27489	484.78973	854.89270	-178.44087	580.72125	808.88074	-151.69891
3	0.00800	433.17325	1420.38562	127.51118	503.89932	1340.74219	297.62701	473.29712	1372.01624	-71.75842	569.60620	1300.00195	99.57552	465.88641	1131.36609	332.61972	475.08295	1066.58826	337.24399	446.95093	1025.91101	246.16827	564.92432	988.06335	303.54242	661.58960	1029.20056	325.50717	658.91034	1018.83008	250.09433	742.20703	993.09705	332.88873	450.93341	1167.68738	-147.79231	454.62534	1089.05627	-168.80130	386.41354	1053.69763	-104.33772	448.21765	944.26703	-184.20438	537.67139	879.39185	-133.23827	485.00360	854.83698	-178.42007	580.88849	808.79907	-151.66338
4	0.01200	433.33734	1420.36450	127.54473	503.81125	1340.80457	297.66269	473.54700	1372.02026	-71.69895	569.81573	1300.02527	99.67820	466.13974	1131.39722	332.63913	475.40308	1066.99890	337.23724	447.49124	1026.00964	246.06204	565.80975	989.46423	303.60413	661.76990	1032.00891	325.48837	659.45551	1021.41309	249.97726	742.90552	996.81580	332.84286	451.22195	1167.67432	-147.72438	454.91415	1089.05603	-168.75882	386.67307	1053.69116	-104.28922	448.46539	944.25525	-184.16945	537.87579	879.32410	-133.20430	485.21497	854.79095	-178.40474	581.05298	808.71820	-151.63512
5	0.01600	433.50974	1420.35242	127.57487	503.73102	1340.86633	297.70352	473.79330	1372.02905	-71.63308	570.03009	1300.04675	99.76392	466.39194	1131.42932	332.65131	475.71664	1067.38806	337.23831	448.06729	1026.09448	245.93082	566.74280	990.78204	303.61795	661.91132	1034.84045	325.49902	659.99274	1023.96765	249.88002	743.65497	1000.55707	332.79611	451.50922	1167.67236	-147.64177	455.05377	1089.17212	-168.97461	386.93088	1053.68835	-104.23563	448.69727	944.24249	-184.12944	538.07361	879.26208	-133.17439	485.40591	854.75348	-178.38243	581.22064	808.63464	-151.60980
6	0.02000	433.69012	1420.34021	127.62978	503.65555	1340.91968	297.74725	474.04156	1372.03979	-71.56416	570.24799	1300.07080	99.84817	466.64734	1131.45227	332.66837	476.04626	1067.77661	337.25369	448.68494	1026.17065	245.79759	567.67310	992.16302	303.62051	662.00562	1037.69202	325.50870	660.51129	1026.51575	249.77112	744.32263	1004.27844	332.73206	451.79581	1167.67566	-147.56439	455.29169	1089.18640	-168.98083	387.19077	1053.68042	-104.18169	448.92258	944.23236	-184.09047	538.26288	879.20868	-133.13753	485.59506	854.71680	-178.34390	581.38989	808.55725	-151.57904
7	0.02400	433.87836	1420.31885	127.69196	503.58646	1340.96655	297.79916	474.28860	1372.05933	-71.48965	570.47449	1300.08899	99.94231	466.90598	1131.47449	332.67276	476.38910	1068.15833	337.26584	449.28702	1026.25183	245.65573	568.59277	993.52264	303.60788	662.10419	1040.53235	325.50650	661.01050	1029.07739	249.63521	744.96069	1008.02661	332.67407	452.08551	1167.67224	-147.48245	455.56174	1089.18811	-168.92999	387.44821	1053.67041	-104.12297	449.14645	944.22839	-184.04073	538.43915	879.15442	-133.10083	485.78741	854.68317	-178.30789	581.55237	808.48352	-151.55673
